<svg version="1" xmlns="http://www.w3.org/2000/svg" width="384" height="384" viewBox="0 0 288.000000 288.000000"><path d="M212.2 14c-2 7-4.3 13-5 13-.4 0-3.8-1.1-7.7-2.5-3.8-1.3-9-2.7-11.3-3.1-4-.6-4.6-1.1-6.2-4.9-1.9-4.4-4.7-7.4-3.7-3.9.4 1.1.9 3.1 1.2 4.5l.6 2.6-17.8-.5c-33.5-.9-61.4 4.1-80.6 14.4-2.7 1.4-5 2.4-5.1 2.2C75 34.1 72.2 27 70.4 20l-2.3-8.5-.1 5.1c0 2.7.9 8.8 2.1 13.3 2.4 9.5 1.7 11.8-2.4 7.7-2.4-2.4-3.3-2.6-11.9-2.7-5.1 0-11.5-.4-14.2-.7l-5-.7-.3-7.5c-.2-5.7-.7-7.9-2.2-9.3-2-2.1-11.7-4.7-16.6-4.6-2.9.1-2.8.2 1 1.4 2.2.7 6.2 2.2 8.9 3.4l4.9 2.1-.6 8c-.7 10.4.2 11.6 9.8 13 3.9.5 10.3 1 14.3 1 5.2 0 7.4.4 7.8 1.4.3.8-3.9 5.7-10.4 12.2l-11 10.9-3.4-1.2c-3.8-1.4-11.3-1.5-14.3-.4-1.6.7-.9 1 3 1.6 2.8.3 6.7 1.2 8.8 1.8l3.8 1.2-4.2 5.5c-8.8 11.8-18.8 28.7-22.8 38.8-1.3 3.1-1.2 3.3 4.1 9.5 3 3.4 5.8 6.7 6.2 7.4.3.7-.6 3.5-2 6.4-5.4 10.3-4.3 25.3 2.7 34.8 2.8 3.9 2.9 4.3 1.4 7.1-2.7 5.1-1.9 8.9 3.5 17.5 7.8 12.4 7.5 12.1 17.6 13 6.6.5 9.6 1.3 12.3 3 2 1.3 4.8 2.7 6.3 3 2.4.6 2.6 1 2.1 3.7-.7 3.8 1.5 5.8 6.4 5.8 3.7 0 4.6 2.4 1.3 3.5-1.1.3-2 1.5-2 2.6s-2 4.4-4.5 7.5c-3.4 4.1-4.5 6.3-4.5 8.9 0 7.9 3.9 12.9 11.5 14.6 5.2 1.1 5.3 1.2 5.8 5.3 1.3 9.5 9 11.7 41.1 12 23.2.1 23.7 0 42.5-10.3 5.8-3.2 14.3-7.7 18.8-10.1 10-5.1 12.2-7.8 22.9-28.2 7.2-13.7 8-14.7 20.7-27.8 14.4-14.7 24.4-26.7 28.6-34.2 1.4-2.6 3.3-4.8 4.2-4.8.9 0 4.7-2 8.4-4.5 5.4-3.5 7.2-4.2 8.6-3.4 1.5.7 1.9.6 1.9-.5 0-2.5-5-3.2-8.4-1.1-6.3 3.6-9.7 5.5-10 5.5-.2 0 .8-3.7 2.2-8.3 2.2-7.2 2.5-10.1 2.5-23.2 0-10.5-.4-16.9-1.5-21.3l-1.6-6.3 2.1.6c6.7 2 6.4 2 4.4-.3-1-1.1-3.1-2.5-4.7-3.2-2.3-.9-3.3-2.6-5.5-8.8C257 84 254 77 251.8 72.6c-3.5-6.9-3.8-8.2-2.9-10.9 1.8-5 1.3-6.5-1-3l-2.1 3.3-4.2-5.8c-2.4-3.1-7.7-9-12-13-8.1-7.6-8.4-8.5-4.8-12.8 3.3-3.9 8.1-5.7 13.6-5.1 2.8.3 6 .9 7.1 1.3 1.5.5 1.7.4.9-.5-1.7-1.8-11.5-3.5-15.9-2.7-2.7.5-5.3 2.1-8.3 5.2-2.5 2.4-4.7 4.4-5.1 4.4-.3 0-1.6-.8-2.9-1.8-2.1-1.6-2.2-2-1.2-7.5.6-3.2 1-7.7.8-10l-.3-4.2-1.3 4.5zm-35.9 8.7c3.3.5 3.8.9 3.4 2.7-2.1 8.8-2.1 8.6 1.2 8.6 3.1 0 3.1-.1 3.1-5.1v-5.1l3.8.6c5.5 1 16.1 4.6 16.8 5.7.3.6-1.1 3.5-3.1 6.6-3.3 5-3.5 5.6-2.1 7.2 1.4 1.6 1.4 2.2-.3 7.2-2.7 7.7-4.4 20.4-3.6 27.2l.6 5.8-2.8-.8c-5-1.3-19.6-.7-26.3 1.1-19.3 5.1-34.5 21.8-38 41.5-1.7 9.5.1 29.1 3.5 38.4 5.5 14.9 16.7 26.5 27.1 28.2l3.9.6-4.7-2.6c-2.7-1.4-4.8-2.7-4.8-2.9 0-.2 3.3.5 7.3 1.6 22.9 6.3 25.1 7.3 23.1 10.5-.6 1-2 2-3 2.2-5.3.9-6.8 6.5-3.8 13.7 2.3 5.4 1.4 10-4.7 24.3-6.1 14.5-6.1 14.5-21.3 15.5-6.7.4-10.4 1.1-11.6 2.1-1.3 1.2-4.8 1.5-18.6 1.5-19.1-.1-47.1-1.4-49.5-2.4-2-.9-4.9-6.9-4.9-10.2 0-1.6 1.6-4.2 4.5-7.2l4.5-4.7 2.6 3 2.7 2.9-3.4 1.1c-1.8.6-3.4 1.6-3.6 2.1-.2.5 16.7.8 43.3.6 43.6-.3 43.7-.3 43 1.8-2.1 6.8-2.1 6.6-.2 5.1 3.4-2.9 7.8-13.3 8.4-19.8.2-3.5.7-6.3 1-6.3.3 0 1.1.8 1.8 1.7 2.7 3.6 1.5-1.8-2.1-9.2-4-8.4-11.1-16.3-17.5-19.5-17.7-9-61.7-10.4-90-3-6.3 1.7-11.9 3.5-12.4 4s-.2 1.5.8 2.5c.9.9 1.6 2.1 1.6 2.6 0 1.1-11 1.2-12.7.1-1.2-.7-6.3-8.1-10.1-14.5-2.1-3.7-2.9-7.7-1.6-9 .4-.3 3 .6 5.8 2 3.7 1.9 7.1 2.7 12.6 3.1 6.8.4 8.3.1 14.8-2.7 8-3.4 8.4-2.8 1.7 2-5.7 4.1-5.8 5.6-.3 2.8 10.3-5.2 16.4-12.6 19.8-24 4.4-14.8.6-29.7-9.6-37.6-2-1.5-5.7-4.6-8.3-6.7-13.4-11.4-29.6-11.9-40.2-1.4l-3 3.1-2.5-2.3c-1.3-1.3-2.4-3.2-2.4-4.2 0-4.3 11.8-24.8 23-40 2.9-3.9 3.9-4.7 5.9-4.2 2.1.4 2.3.2 1.7-1.9-.4-1.9.5-3.6 4.8-8.4 3-3.2 7.5-7.6 10-9.7l4.6-3.7 1.8 3c2 3.5 2.1 3.6 4.7 1.7 1.9-1.3 1.9-1.6.3-4.9-1.4-3-1.5-3.7-.3-4.7 1.1-.9 1.7-.5 3.1 2.2 2.2 4.3 1.9 4.1 4.3 2.8 2.5-1.3 2.7-3.3.6-5-3.7-3.1-.8-5.3 14.5-10.8 11-4 19.1-6 31.5-7.6 10.4-1.5 43.2-2 49.8-.9zm15 81.1c8.1 4 15 11 19 19.1 2.9 6.1 3.2 7.4 3.2 16.6-.1 9.1-.4 10.6-3.2 16.8-9.5 20.3-33.3 28.9-53.7 19.2-10.1-4.8-18.3-15.1-21.5-27-3.4-12.6 1.8-28.7 12.3-38.2 8.7-7.8 16.3-10.4 28.9-9.9 7.3.3 9.8.8 15 3.4zM61.6 125.9c10.6 4.8 16.4 13.9 16.4 25.6 0 8.3-2.1 13.5-7.4 18.8-13.5 13.6-34.8 10.4-44.1-6.4-5.6-10-3.6-23.7 4.6-31.8 7.6-7.7 21.2-10.4 30.5-6.2zm34.3 76.3c.5 3.5 1.3 8.6 1.7 11.5l.6 5.1-6.3.6c-19.9 1.7-21.9 1.8-21.9.4 0-.7 1.4-6.1 3.1-12l3.1-10.7 3.7-.4c2-.2 6.1-.4 9.2-.5l5.7-.2 1.1 6.2zm20.2-4.1c-3.1 2.5-13.9 8.9-15.1 8.9-.9 0-1.3-1.2-2.4-7.8l-.5-3.2h10.2l10.2.1-2.4 2zm-43.5 1.6c-.2 1-1 3.8-1.7 6.2-1.4 4.8-2.6 5.6-6.7 4.6-2.6-.6-11.8-9.2-10.9-10.1.5-.6 11.7-2.1 16.5-2.3 2.7-.1 3.2.2 2.8 1.6zm51.7 4.8c1.5 3.1 2.7 5.9 2.7 6.4s-2.4 1.4-5.2 2.1c-2.9.6-6 1.4-6.8 1.6-1.2.3-1.9-.9-2.8-4.2-.7-2.6-1.1-4.8-1-4.9 2.7-2.1 9.3-6.5 9.7-6.5.4 0 1.9 2.5 3.4 5.5zM148 202c2.2 1.1 4 2.6 4 3.3 0 .7-1.5 2.7-3.3 4.5l-3.3 3.2-3.4-2.9-3.5-2.9 1.7-3.6c2-4.2 2.5-4.3 7.8-1.6zm14.8 14.7c.6 1.6 1.3 4.7 1.6 7 .6 4.2.6 4.3-2.4 4.3-2.7 0-3-.3-3-3.3 0-5.2-1.8-6.9-6-5.8-1.9.5-6.8 1.5-10.8 2.1-4.6.8-7.5 1.7-7.9 2.6-.3.8 0 3.5.7 6 1.2 4.3 1.2 4.6-1.5 7.4-2.8 2.9-3.1 3-13.2 3-5.7 0-10.3-.3-10.3-.7 0-1.2 5.4-7.8 10-12.1 6.1-5.8 19.9-12.6 23.9-11.7 1.7.3 3.2.2 3.6-.4.3-.6 3.7-1.1 7.4-1.1 6.6 0 6.9.1 7.9 2.7zm-7.4 11c-.2 5.9-3 11.6-5.9 12.2-5 .9-11.4-5.9-11.8-12.7-.2-2.5.1-2.7 6.3-3.8 3.6-.7 7.6-1.1 9-1 2.3.1 2.5.4 2.4 5.3zm-61.6 2.8c.2.2 0 2.4-.3 4.9l-.7 4.6h-4.3c-3.9 0-4.7-.4-7.9-4.4-2-2.3-3.6-4.6-3.6-4.9 0-1.2 15.4-1.3 16.8-.2zm70.2 3.6c0 4.1-1.8 5.9-6.1 5.9h-4l2-2.6c1.2-1.5 2.1-3.3 2.1-4 0-.9 1.1-1.4 3-1.4 2.4 0 3 .4 3 2.1zm-24 4.4c1.1 1.3.7 1.5-2.5 1.5s-3.6-.2-2.5-1.5c.7-.8 1.8-1.5 2.5-1.5s1.8.7 2.5 1.5zm-31.4 25c12.2 3.2 24.7 3.4 35.9.5 4.3-1.1 8-2 8.2-2 .6 0-2.5 5.4-4.4 7.6-5.3 6-10.5 6.9-34.8 5.4-25.7-1.5-27.7-2.2-29-9.2-.6-3-.4-3.7 1.2-4.1 4.7-1.2 14.1-.5 22.9 1.8z"/><path d="M153 59c-6.5.8-14.7 3.4-21.1 6.6-3.7 1.9-14.1 9.2-15.9 11.3-1.6 1.9-11 9.1-13.6 10.4-7.5 3.8-11.3 4-22.4 1.1-11-2.8-24.1-3.7-26-1.8-.8.8.8 1.3 5.7 1.7 3.7.2 11.1 1.9 16.3 3.6 17.6 5.8 24.6 4.2 41.1-9.5 5.1-4.3 9.6-8.1 9.9-8.4 5.1-5.6 19.1-12.6 28.1-14.1 3.5-.6 6.5-1.2 6.8-1.5.5-.5-1.6-.4-8.9.6z"/><path d="M115.6 67.7c-1.6.8-5.9 3.6-9.5 6.2-8.2 5.9-12.7 7.9-18.5 8.7-5.7.8-5.9 2-.6 2.9 8.4 1.4 16-2.4 28.5-14.6 5.1-5 5.2-6 .1-3.2zM106.4 154.7c-1.6 6.3 4.4 18.3 9.1 18.3 2.9 0 4-2.7 3-7.8-1.9-10.2-10.4-17.5-12.1-10.5zM93.4 160c-5.3 2.1-8.8 12-5.2 14.3 3.7 2.4 12.1-9.1 9.8-13.3-1.2-2.2-1.5-2.3-4.6-1zM174.4 135.5c-1.2 1.8-1.4 3.1-.7 5.2 2 6 11.3 4.7 11.3-1.6 0-5.8-7.5-8.4-10.6-3.6zM42 145.9c-2.1 4 2 7.7 5.8 5.2.8-.5 1.2-2.1 1-3.7-.2-2.3-.9-3-3-3.2-1.9-.2-3 .3-3.8 1.7z"/></svg>